<svg width="20" height="21" viewBox="0 0 20 21" fill="none" xmlns="http://www.w3.org/2000/svg">
<path d="M19.56 9.47004L18.2 7.89004C17.94 7.59004 17.73 7.03004 17.73 6.63004V4.93004C17.73 3.87004 16.86 3.00004 15.8 3.00004H14.1C13.71 3.00004 13.14 2.79004 12.84 2.53004L11.26 1.17004C10.57 0.580039 9.44 0.580039 8.74 1.17004L7.17 2.54004C6.87 2.79004 6.3 3.00004 5.91 3.00004H4.18C3.12 3.00004 2.25 3.87004 2.25 4.93004V6.64004C2.25 7.03004 2.04 7.59004 1.79 7.89004L0.440005 9.48004C-0.139995 10.17 -0.139995 11.29 0.440005 11.98L1.79 13.57C2.04 13.87 2.25 14.43 2.25 14.82V16.53C2.25 17.59 3.12 18.46 4.18 18.46H5.91C6.3 18.46 6.87 18.67 7.17 18.93L8.75 20.29C9.44 20.88 10.57 20.88 11.27 20.29L12.85 18.93C13.15 18.67 13.71 18.46 14.11 18.46H15.81C16.87 18.46 17.74 17.59 17.74 16.53V14.83C17.74 14.44 17.95 13.87 18.21 13.57L19.57 11.99C20.15 11.3 20.15 10.16 19.56 9.47004ZM14.16 8.84004L9.33 13.67C9.19 13.81 9 13.89 8.8 13.89C8.60001 13.89 8.41001 13.81 8.27001 13.67L5.85 11.25C5.56 10.96 5.56 10.48 5.85 10.19C6.14 9.90004 6.62 9.90004 6.91 10.19L8.8 12.08L13.1 7.78004C13.39 7.49004 13.87 7.49004 14.16 7.78004C14.45 8.07004 14.45 8.55004 14.16 8.84004Z" fill="#BEA1E4"/>
</svg>
